<?xml version="1.0" encoding="UTF-8" standalone="no"?>
<svg
   xmlns:dc="http://purl.org/dc/elements/1.1/"
   xmlns:cc="http://creativecommons.org/ns#"
   xmlns:rdf="http://www.w3.org/1999/02/22-rdf-syntax-ns#"
   xmlns:svg="http://www.w3.org/2000/svg"
   xmlns="http://www.w3.org/2000/svg"
   xmlns:sodipodi="http://sodipodi.sourceforge.net/DTD/sodipodi-0.dtd"
   xmlns:inkscape="http://www.inkscape.org/namespaces/inkscape"
   width="128"
   height="128"
   viewBox="0 0 33.866666 33.866666"
   version="1.1"
   id="svg8"
   inkscape:version="0.92.3 (2405546, 2018-03-11)"
   sodipodi:docname="icone.svg"
   inkscape:export-filename="E:\Wamp\www\WebProjects\WEB_SIO\2021-2022\Aventuriers\full\images\icone.png"
   inkscape:export-xdpi="96"
   inkscape:export-ydpi="96">
  <defs
     id="defs2">
    <filter
       style="color-interpolation-filters:sRGB"
       inkscape:label="Drop Shadow"
       id="filter1208">
      <feFlood
         flood-opacity="0.635294"
         flood-color="rgb(0,0,0)"
         result="flood"
         id="feFlood1198" />
      <feComposite
         in="flood"
         in2="SourceGraphic"
         operator="in"
         result="composite1"
         id="feComposite1200" />
      <feGaussianBlur
         in="composite1"
         stdDeviation="0.1"
         result="blur"
         id="feGaussianBlur1202" />
      <feOffset
         dx="0.3"
         dy="0.3"
         result="offset"
         id="feOffset1204" />
      <feComposite
         in="SourceGraphic"
         in2="offset"
         operator="over"
         result="composite2"
         id="feComposite1206" />
    </filter>
  </defs>
  <sodipodi:namedview
     id="base"
     pagecolor="#ffffff"
     bordercolor="#666666"
     borderopacity="1.0"
     inkscape:pageopacity="0.0"
     inkscape:pageshadow="2"
     inkscape:zoom="0.60471559"
     inkscape:cx="-171.5311"
     inkscape:cy="241.94124"
     inkscape:document-units="px"
     inkscape:current-layer="layer2"
     showgrid="false"
     units="px"
     inkscape:window-width="1920"
     inkscape:window-height="1017"
     inkscape:window-x="-8"
     inkscape:window-y="-8"
     inkscape:window-maximized="1"
     fit-margin-top="0"
     fit-margin-left="0"
     fit-margin-right="0"
     fit-margin-bottom="0"
     objecttolerance="1"
     gridtolerance="1"
     guidetolerance="1"
     inkscape:document-rotation="0"
     showguides="true" />
  <metadata
     id="metadata5">
    <rdf:RDF>
      <cc:Work
         rdf:about="">
        <dc:format>image/svg+xml</dc:format>
        <dc:type
           rdf:resource="http://purl.org/dc/dcmitype/StillImage" />
        <dc:title />
      </cc:Work>
    </rdf:RDF>
  </metadata>
  <g
     inkscape:groupmode="layer"
     id="layer2"
     inkscape:label="background"
     style="display:inline"
     transform="translate(-14.316916,13.824143)">
    <path
       style="fill:#9c5400;fill-opacity:1;stroke-width:0.08619338"
       d="m 23.731003,-3.4232961 c -0.568305,1.4889131 -0.917542,3.40290141 -1.232465,5.2482006 -0.06936,0.069358 -0.152594,0.3098855 -0.184844,0.5345 -0.2135,1.4866847 -0.247603,1.6155875 -0.42558,1.6031631 -1.408706,0.4037194 -3.82254,0.1345319 -7.215135,1.4566617 -0.869155,1.1786136 3.585284,3.5326326 7.887539,4.7603247 4.577956,1.306366 11.602214,1.839478 14.971776,1.506857 2.315913,-0.22861 9.612157,-1.510243 10.164664,-3.5648808 C 48.34655,5.7058569 43.856755,4.8501619 41.625219,4.620633 L 41.32472,4.5214783 C 40.98263,3.6911593 41.282464,2.4253818 41.025949,1.90834 c -0.304153,-1.09390467 -0.906935,-2.85377129 -1.15556,-4.3994626 -0.213792,-1.3291458 -1.087019,-2.3727911 -2.189663,-2.701565 -2.568106,-0.765729 -8.02814,-1.2820906 -8.742494,-0.6152823 -2.452471,-0.7517442 -4.271003,-0.068164 -5.207229,2.3846738 z"
       id="path838-9"
       inkscape:connector-curvature="0"
       sodipodi:nodetypes="sccccssscccsscs" />
    <path
       style="fill:#622d02;fill-opacity:1;stroke-width:0.09557603"
       d="M 41.517654,4.5843706 C 31.28888,9.7758886 22.04565,7.9341586 14.841949,5.3572631 c -0.05665,0.021407 -0.111417,0.03937 -0.16863,0.061669 -0.869155,1.1786136 3.585146,3.5330118 7.887402,4.7607029 2.494229,0.711754 5.704345,1.18471 8.664197,1.422434 1.774791,0.134487 3.450876,0.192386 4.862193,0.168631 0.0069,-1.18e-4 0.01481,1.21e-4 0.02186,0 0.523487,-0.01465 1.002021,-0.04274 1.423217,-0.08432 2.315913,-0.22861 9.612191,-1.510034 10.164697,-3.5646716 0.649594,-2.4156733 -3.839958,-3.2719061 -6.071494,-3.5014351 z"
       id="path872-6"
       inkscape:connector-curvature="0"
       sodipodi:nodetypes="cccscccsscc" />
    <path
       style="color:#000000;clip-rule:nonzero;display:inline;overflow:visible;visibility:visible;opacity:1;isolation:auto;mix-blend-mode:normal;color-interpolation:sRGB;color-interpolation-filters:linearRGB;solid-color:#000000;solid-opacity:1;vector-effect:none;fill:#622d02;fill-opacity:1;fill-rule:nonzero;stroke:none;stroke-width:3.44773555;stroke-linecap:square;stroke-linejoin:miter;stroke-miterlimit:4;stroke-dasharray:none;stroke-dashoffset:0;stroke-opacity:1;paint-order:stroke fill markers;color-rendering:auto;image-rendering:auto;shape-rendering:auto;text-rendering:auto;enable-background:accumulate"
       d="m 27.221648,-6.0974544 c -0.146588,-9.137e-4 -0.289599,0.00631 -0.429452,0.020033 0.523352,0.5990965 0.722003,1.7720686 0.619386,3.607276 -0.13207,2.36201168 -3.860591,4.3528908 -2.983889,4.3528908 0.282491,0 5.789115,-0.2388669 5.947988,-0.5950189 -1.50346,0.733376 -2.170704,-6.4192137 -1.437405,-7.0956249 -0.613118,-0.187936 -1.186635,-0.2862526 -1.716628,-0.289556 z"
       id="path874-8"
       inkscape:connector-curvature="0"
       sodipodi:nodetypes="scssccs" />
    <path
       style="color:#000000;clip-rule:nonzero;display:inline;overflow:visible;visibility:visible;opacity:1;isolation:auto;mix-blend-mode:normal;color-interpolation:sRGB;color-interpolation-filters:linearRGB;solid-color:#000000;solid-opacity:1;vector-effect:none;fill:#7d3903;fill-opacity:1;fill-rule:nonzero;stroke:none;stroke-width:3.44773555;stroke-linecap:square;stroke-linejoin:miter;stroke-miterlimit:4;stroke-dasharray:none;stroke-dashoffset:0;stroke-opacity:1;paint-order:stroke fill markers;color-rendering:auto;image-rendering:auto;shape-rendering:auto;text-rendering:auto;enable-background:accumulate"
       d="M 41.033738,1.8725489 C 34.956027,1.0532373 31.0532,-0.30665062 27.785595,-0.17474598 c -1.683113,0.0679382 -4.701546,1.67007848 -5.276302,1.93317928 -0.0038,0.022027 -0.0069,0.044507 -0.01073,0.066488 -0.06936,0.069358 -0.152593,0.309887 -0.184844,0.5345 -0.2135,1.4866846 -0.247602,1.6155889 -0.42558,1.6031646 -0.01579,0.00453 -0.03046,0.00997 -0.04612,0.014654 2.059878,0.1547773 5.195837,-0.3565116 8.373457,-0.1438833 6.127698,0.4100191 9.09235,0.9011668 11.285657,0.7482341 -0.333777,-0.609655 -0.17584,-2.3896357 -0.467345,-2.7090359 z"
       id="rect848-1"
       inkscape:connector-curvature="0"
       sodipodi:nodetypes="cscccccscc" />
  </g>
  <g
     inkscape:label="Calque 1"
     inkscape:groupmode="layer"
     id="layer1"
     transform="translate(-134.13712,-107.99223)" />
</svg>
