<?xml version="1.0" encoding="UTF-8" standalone="no"?>
<svg
   xmlns:dc="http://purl.org/dc/elements/1.1/"
   xmlns:cc="http://creativecommons.org/ns#"
   xmlns:rdf="http://www.w3.org/1999/02/22-rdf-syntax-ns#"
   xmlns:svg="http://www.w3.org/2000/svg"
   xmlns="http://www.w3.org/2000/svg"
   xmlns:sodipodi="http://sodipodi.sourceforge.net/DTD/sodipodi-0.dtd"
   xmlns:inkscape="http://www.inkscape.org/namespaces/inkscape"
   width="190"
   height="118"
   viewBox="0 0 50.270832 31.220834"
   version="1.1"
   id="svg8"
   inkscape:version="1.0.1 (3bc2e813f5, 2020-09-07)"
   sodipodi:docname="yummy.svg"
   inkscape:export-filename="E:\Users\Bastien\Downloads\image.png"
   inkscape:export-xdpi="96"
   inkscape:export-ydpi="96">
  <defs
     id="defs2">
    <filter
       style="color-interpolation-filters:sRGB;"
       inkscape:label="Drop Shadow"
       id="filter1208">
      <feFlood
         flood-opacity="0.635294"
         flood-color="rgb(0,0,0)"
         result="flood"
         id="feFlood1198" />
      <feComposite
         in="flood"
         in2="SourceGraphic"
         operator="in"
         result="composite1"
         id="feComposite1200" />
      <feGaussianBlur
         in="composite1"
         stdDeviation="0.1"
         result="blur"
         id="feGaussianBlur1202" />
      <feOffset
         dx="0.3"
         dy="0.3"
         result="offset"
         id="feOffset1204" />
      <feComposite
         in="SourceGraphic"
         in2="offset"
         operator="over"
         result="composite2"
         id="feComposite1206" />
    </filter>
  </defs>
  <sodipodi:namedview
     id="base"
     pagecolor="#ffffff"
     bordercolor="#666666"
     borderopacity="1.0"
     inkscape:pageopacity="0.0"
     inkscape:pageshadow="2"
     inkscape:zoom="2.140886"
     inkscape:cx="127.53886"
     inkscape:cy="64.987299"
     inkscape:document-units="px"
     inkscape:current-layer="layer2"
     showgrid="false"
     units="px"
     inkscape:window-width="1920"
     inkscape:window-height="1001"
     inkscape:window-x="-9"
     inkscape:window-y="-9"
     inkscape:window-maximized="1"
     fit-margin-top="0"
     fit-margin-left="0"
     fit-margin-right="0"
     fit-margin-bottom="0"
     objecttolerance="1"
     gridtolerance="1"
     guidetolerance="1"
     inkscape:document-rotation="0"
     showguides="false"
     inkscape:pagecheckerboard="0" />
  <metadata
     id="metadata5">
    <rdf:RDF>
      <cc:Work
         rdf:about="">
        <dc:format>image/svg+xml</dc:format>
        <dc:type
           rdf:resource="http://purl.org/dc/dcmitype/StillImage" />
        <dc:title></dc:title>
      </cc:Work>
    </rdf:RDF>
  </metadata>
  <g
     inkscape:groupmode="layer"
     id="layer2"
     inkscape:label="background"
     style="display:inline" />
  <g
     inkscape:label="Calque 1"
     inkscape:groupmode="layer"
     id="layer1"
     transform="translate(-119.8202,-121.81637)"
     style="display:inline;opacity:1">
    <path
       id="rect3866"
       style="fill:#d17d00;fill-opacity:1;stroke-width:0.25293529"
       d="m 154.64317,143.13666 v 2.50831 c 0,0.74135 -0.59683,1.33818 -1.33819,1.33818 h -16.69872 c -0.74136,0 -1.33819,-0.59683 -1.33819,-1.33818 v -2.50831 z"
       sodipodi:nodetypes="csssscc"
       inkscape:connector-curvature="0" />
    <path
       id="path5919"
       style="fill:#da2e2e;fill-opacity:1;stroke-width:0.27151975"
       d="m 154.64317,137.89694 v 2.89046 c 0,0.85428 -0.59684,1.54205 -1.3382,1.54205 h -16.69872 c -0.74135,0 -1.33818,-0.68777 -1.33818,-1.54205 v -2.89046 z"
       sodipodi:nodetypes="csssscc"
       inkscape:connector-curvature="0" />
    <rect
       style="fill:#853b1b;fill-opacity:1;stroke-width:0.25759736"
       id="rect1052"
       width="21.096331"
       height="3.521055"
       x="134.40746"
       y="140.8643"
       rx="1.9657946"
       ry="1.7605275" />
    <path
       id="rect8926"
       style="fill:#f2c606;fill-opacity:1;stroke-width:0.25720081"
       d="m 135.98126,140.08087 h 16.3004 c 0.98322,0 2.56749,0.291 3.13815,1.0035 0.18906,0.23604 0.56962,1.06464 0.25938,1.26168 -0.76099,0.48333 -0.86495,-0.20445 -1.71989,-0.7322 -2.9194,-0.9929 -3.28493,1.93942 -4.51241,2.0328 -1.04488,0.0135 -2.19057,-1.49018 -2.9206,-1.01491 -2.06215,1.34253 -4.45276,-0.51663 -5.12292,-0.48653 -3.3074,0.14857 -2.54556,-0.49164 -4.48034,-0.6219 -2.13842,-0.14396 -2.5458,1.01699 -2.80858,0.40574 0,-1.0239 0.83261,-1.84818 1.86681,-1.84818 z"
       sodipodi:nodetypes="ssssccssscs"
       inkscape:connector-curvature="0" />
    <path
       id="path14395"
       style="fill:#44b200;fill-opacity:1;stroke-width:0.25947285"
       d="m 135.87321,136.82964 h 16.58971 c 1.00067,0 2.60956,0.294 3.19385,1.00351 0.18271,0.22185 0.33327,0.84535 0.26398,1.26168 -0.14477,0.86983 -0.71242,-0.41726 -1.53021,-0.59696 -0.22617,-0.0497 -0.73595,0.15636 -1.05434,0.19072 -0.5283,0.057 -1.10854,-0.57908 -1.289,-0.44652 -0.28334,0.20812 -1.16563,0.99374 -2.1611,0.95881 -1.06284,-0.0373 -1.78408,-0.9922 -2.53934,-0.53599 -2.28719,1.38151 -3.37844,-0.24703 -3.42541,-0.50544 0,0 -0.86859,0.60489 -1.71087,0.52083 -0.63036,-0.0629 -0.96765,-0.6162 -1.4522,-0.62475 -0.594,-0.0105 -1.52657,0.88788 -2.28748,0.98528 -0.90963,0.11646 -1.58359,-0.65909 -1.65066,-0.93364 -0.0441,0.27186 -0.581,0.70618 -0.85945,0.74151 -0.48838,0.0619 -0.81726,-0.48504 -0.96555,-0.32187 -0.51736,0.56929 -0.82144,0.58085 -1.02186,0.15104 0,-1.0239 0.84737,-1.84819 1.89993,-1.84819 z"
       sodipodi:nodetypes="ssssssssssssscsscss"
       inkscape:connector-curvature="0" />
    <path
       id="path19912"
       style="fill:#d17d00;fill-opacity:1;stroke-width:0.25293529"
       d="m 154.73879,136.24439 c 0,0.74134 -0.62871,1.14692 -1.37007,1.14692 h -16.69871 c -0.74135,0 -1.49756,-0.30996 -1.49756,-1.05131 0.31122,-5.69122 4.93558,-8.42305 9.55769,-8.46887 4.62443,-0.0458 9.25974,2.13317 10.00865,8.37326 z"
       sodipodi:nodetypes="csscsc"
       inkscape:connector-curvature="0" />
    <ellipse
       style="display:inline;fill:#ffffae;fill-opacity:1;stroke-width:0.25591436"
       id="path23856"
       cx="146.11674"
       cy="131.27495"
       rx="0.30280963"
       ry="0.63749397" />
    <ellipse
       style="display:inline;fill:#ffffae;fill-opacity:1;stroke-width:0.25591436"
       id="path23856-2"
       cx="143.23178"
       cy="129.24646"
       rx="0.30280963"
       ry="0.63749397" />
    <ellipse
       style="display:inline;fill:#ffffae;fill-opacity:1;stroke-width:0.25591436"
       id="path23856-5"
       cx="143.05145"
       cy="132.80759"
       rx="0.30280963"
       ry="0.63749397" />
    <ellipse
       style="display:inline;fill:#ffffae;fill-opacity:1;stroke-width:0.25591436"
       id="path23856-8"
       cx="139.62555"
       cy="131.22987"
       rx="0.30280963"
       ry="0.63749397" />
    <ellipse
       style="display:inline;fill:#ffffae;fill-opacity:1;stroke-width:0.25591436"
       id="path23856-3"
       cx="137.46184"
       cy="133.34851"
       rx="0.30280963"
       ry="0.63749397" />
    <ellipse
       style="display:inline;fill:#ffffae;fill-opacity:1;stroke-width:0.25591436"
       id="path23856-0"
       cx="148.05508"
       cy="129.74231"
       rx="0.30280963"
       ry="0.63749397" />
    <ellipse
       style="display:inline;fill:#ffffae;fill-opacity:1;stroke-width:0.25591436"
       id="path23856-6"
       cx="145.60938"
       cy="134.35126"
       rx="0.30280963"
       ry="0.63749397" />
    <ellipse
       style="display:inline;fill:#ffffae;fill-opacity:1;stroke-width:0.25591436"
       id="path23856-31"
       cx="150.12865"
       cy="131.54541"
       rx="0.30280963"
       ry="0.63749397" />
    <ellipse
       style="display:inline;fill:#ffffae;fill-opacity:1;stroke-width:0.25591436"
       id="path23856-29"
       cx="152.51776"
       cy="132.98788"
       rx="0.30280963"
       ry="0.63749397" />
    <g
       id="g903">
      <ellipse
         ry="2.5935175"
         rx="2.6662333"
         cy="135.12387"
         cx="140.3658"
         id="ellipse855"
         style="fill:#1b1b1b;fill-opacity:1;stroke-width:0.18690301" />
      <ellipse
         transform="rotate(-42.772599)"
         ry="0.99182975"
         rx="1.5440986"
         cy="193.12236"
         cx="11.242735"
         id="path880"
         style="color:#000000;clip-rule:nonzero;display:inline;overflow:visible;visibility:visible;opacity:1;isolation:auto;mix-blend-mode:normal;color-interpolation:sRGB;color-interpolation-filters:linearRGB;solid-color:#000000;solid-opacity:1;vector-effect:none;fill:#ffffff;fill-opacity:1;fill-rule:nonzero;stroke:none;stroke-width:1.05833328;stroke-linecap:round;stroke-linejoin:miter;stroke-miterlimit:4;stroke-dasharray:none;stroke-dashoffset:0;stroke-opacity:1;paint-order:normal;color-rendering:auto;image-rendering:auto;shape-rendering:auto;text-rendering:auto;enable-background:accumulate" />
      <ellipse
         style="color:#000000;clip-rule:nonzero;display:inline;overflow:visible;visibility:visible;opacity:1;isolation:auto;mix-blend-mode:normal;color-interpolation:sRGB;color-interpolation-filters:linearRGB;solid-color:#000000;solid-opacity:1;vector-effect:none;fill:#ffffff;fill-opacity:1;fill-rule:nonzero;stroke:none;stroke-width:1.05833328;stroke-linecap:round;stroke-linejoin:miter;stroke-miterlimit:4;stroke-dasharray:none;stroke-dashoffset:0;stroke-opacity:1;paint-order:normal;color-rendering:auto;image-rendering:auto;shape-rendering:auto;text-rendering:auto;enable-background:accumulate"
         id="ellipse882"
         cx="6.4852734"
         cy="196.68452"
         rx="0.7443099"
         ry="0.47809687"
         transform="rotate(-44.158288)" />
    </g>
    <g
       id="g911"
       transform="translate(9.7229781)">
      <ellipse
         style="fill:#1b1b1b;fill-opacity:1;stroke-width:0.18690301"
         id="ellipse905"
         cx="140.3658"
         cy="135.12387"
         rx="2.6662333"
         ry="2.5935175" />
      <ellipse
         style="color:#000000;clip-rule:nonzero;display:inline;overflow:visible;visibility:visible;opacity:1;isolation:auto;mix-blend-mode:normal;color-interpolation:sRGB;color-interpolation-filters:linearRGB;solid-color:#000000;solid-opacity:1;vector-effect:none;fill:#ffffff;fill-opacity:1;fill-rule:nonzero;stroke:none;stroke-width:1.05833328;stroke-linecap:round;stroke-linejoin:miter;stroke-miterlimit:4;stroke-dasharray:none;stroke-dashoffset:0;stroke-opacity:1;paint-order:normal;color-rendering:auto;image-rendering:auto;shape-rendering:auto;text-rendering:auto;enable-background:accumulate"
         id="ellipse907"
         cx="11.242735"
         cy="193.12236"
         rx="1.5440986"
         ry="0.99182975"
         transform="rotate(-42.772599)" />
      <ellipse
         transform="rotate(-44.158288)"
         ry="0.47809687"
         rx="0.7443099"
         cy="196.68452"
         cx="6.4852734"
         id="ellipse909"
         style="color:#000000;clip-rule:nonzero;display:inline;overflow:visible;visibility:visible;opacity:1;isolation:auto;mix-blend-mode:normal;color-interpolation:sRGB;color-interpolation-filters:linearRGB;solid-color:#000000;solid-opacity:1;vector-effect:none;fill:#ffffff;fill-opacity:1;fill-rule:nonzero;stroke:none;stroke-width:1.05833328;stroke-linecap:round;stroke-linejoin:miter;stroke-miterlimit:4;stroke-dasharray:none;stroke-dashoffset:0;stroke-opacity:1;paint-order:normal;color-rendering:auto;image-rendering:auto;shape-rendering:auto;text-rendering:auto;enable-background:accumulate" />
    </g>
  </g>
</svg>
